<svg xmlns="http://www.w3.org/2000/svg" viewBox="0 0 138 80"><defs><style>.a{fill:#0095da;fill-rule:evenodd;}.b{fill:#231f20;}</style></defs><path class="a" d="M69.21,10.485a8.231,8.231,0,0,1,.707,16.432V20.581a2,2,0,1,0-1.412,0v6.336a8.231,8.231,0,0,1,.7-16.432Z"/><path class="a" d="M59.493,25.914a8.231,8.231,0,0,1,.7,16.432V36.012a2,2,0,1,0-1.406,0v6.334a8.231,8.231,0,0,1,.7-16.432Z"/><path class="a" d="M78.51,25.914a8.231,8.231,0,0,1,.7,16.432V36.012a2,2,0,1,0-1.411,0v6.334a8.231,8.231,0,0,1,.706-16.432Z"/><path class="a" d="M63.163,50.693H74.871c-3.711-3.552-5.4-8.116-5.939-13.252a23.734,23.734,0,0,1-5.769,13.252Z"/><path class="b" d="M33.881,61.721V60.254A1.966,1.966,0,0,0,35,60.675a.844.844,0,0,0,.9-.656.782.782,0,0,0-.139-.692,3.912,3.912,0,0,0-.78-.661,5.159,5.159,0,0,1-.8-.657,2.242,2.242,0,0,1-.6-1.579,3.651,3.651,0,0,1,.143-.9,1.875,1.875,0,0,1,.724-1.03,2.018,2.018,0,0,1,1.2-.373,2.661,2.661,0,0,1,1.322.369v1.5a1.754,1.754,0,0,0-1.117-.481c-.411,0-.664.245-.76.738a1.036,1.036,0,0,0,.149.5,2.009,2.009,0,0,0,.411.466c.18.157.373.307.574.451s.309.223.325.236a2.157,2.157,0,0,1,.639.816,2.535,2.535,0,0,1,.22,1.061,2.457,2.457,0,0,1-.282,1.164A2.136,2.136,0,0,1,35.173,62.1a2.455,2.455,0,0,1-1.292-.379Zm4.457-7.476H40.1a2.182,2.182,0,0,1,1.426.472,2.032,2.032,0,0,1,.676,1.416v.339a1.656,1.656,0,0,1-.8,1.516,1.93,1.93,0,0,1,.935,1.764,2.066,2.066,0,0,1-.287,1.217,1.976,1.976,0,0,1-.877.758,3.037,3.037,0,0,1-1.257.251H38.338V54.245Zm1.539,1.281v1.889a.888.888,0,0,0,.594-.206.861.861,0,0,0,.308-.717,1.1,1.1,0,0,0-.209-.709.8.8,0,0,0-.653-.257Zm0,3.067v2.1a.909.909,0,0,0,.549-.138.837.837,0,0,0,.317-.405,1.519,1.519,0,0,0,.1-.554,1.078,1.078,0,0,0-.242-.712.879.879,0,0,0-.722-.293Zm3.431-4.348h1.537v7.733H43.308V54.245Zm5.566,0h2l.74,4.564h.019l.626-4.564h2.062l.8,7.733H53.561q-.035-.473-.077-1.169t-.094-1.395c-.03-.466-.067-1-.107-1.621s-.075-1.075-.1-1.385h-.021c-.048.48-.107.972-.179,1.472s-.153,1-.247,1.5-.167.9-.225,1.2-.142.77-.251,1.4h-1.18c-.048-.253-.162-.839-.343-1.754s-.319-1.622-.409-2.118-.177-1.014-.252-1.552v-.146h-.02l-.216,5.57H48.186l.688-7.733Zm7.051,0h1.517v5.423q0,1.048.76,1.047c.328.009.538-.087.629-.28a2.055,2.055,0,0,0,.14-.858V54.245h1.537V59.9a2.437,2.437,0,0,1-.475,1.6,2.345,2.345,0,0,1-1.81.605,2.48,2.48,0,0,1-1.658-.492,2.1,2.1,0,0,1-.64-1.734V54.245Zm5.309,0H65.15V55.67h-1.2v6.308H62.432V55.67h-1.2V54.245Zm4.641,0h1.518v5.423q0,1.048.759,1.047c.329.009.538-.087.63-.28a2.057,2.057,0,0,0,.139-.858V54.245h1.538V59.9a2.437,2.437,0,0,1-.476,1.6,2.349,2.349,0,0,1-1.811.605,2.473,2.473,0,0,1-1.655-.492,2.094,2.094,0,0,1-.642-1.734V54.245Zm7.032,0h1.6l1.857,7.733H74.743l-.3-1.3H72.907l-.288,1.3H71.1l1.807-7.733Zm1.323,5.21-.563-3.231h-.022l-.5,3.231Zm2.8-5.21h1.54v6.286h1.579v1.447H77.025V54.245Zm6.386,0H86.5V55.67H84.948v1.661h1.406v1.437H84.948v3.21H83.411V54.245Zm4.067,0H89v5.423q0,1.048.759,1.047c.327.009.538-.087.63-.28a2.09,2.09,0,0,0,.139-.858V54.245h1.537V59.9a2.426,2.426,0,0,1-.477,1.6,2.345,2.345,0,0,1-1.809.605,2.479,2.479,0,0,1-1.657-.492,2.1,2.1,0,0,1-.641-1.734V54.245Zm5.69,0h1.455l1.928,4.667.02-.021a4.234,4.234,0,0,1-.123-.822V54.245h1.518v7.733H96.528l-1.905-4.666-.02.019c.055.48.088.846.1,1.1v3.549H93.168V54.245Zm5.922,0h1.54a2.656,2.656,0,0,1,2.384,1.159,4.924,4.924,0,0,1,.7,2.944q-.123,3.63-3.209,3.63H99.09V54.245Zm1.54,1.364v5.006a1.218,1.218,0,0,0,1.192-.755,4.22,4.22,0,0,0,.365-1.831,3.455,3.455,0,0,0-.4-1.688,1.261,1.261,0,0,0-1.158-.732Z"/><path class="b" d="M34.6,65.608H35l.83,3.857h-.518l-.151-.747h-.758l-.15.747h-.5l.84-3.857Zm.5,2.7-.3-1.964h-.009l-.307,1.964Z"/><path class="b" d="M41.446,69.465V65.608h.728a.956.956,0,0,1,.724.241,1.142,1.142,0,0,1,.239.757,1.187,1.187,0,0,1-.269.9,1.155,1.155,0,0,1-.774.26.535.535,0,0,0-.117-.01v1.708Zm.531-2.137a.606.606,0,0,0,.44-.118.619.619,0,0,0,.153-.481.817.817,0,0,0-.143-.538.518.518,0,0,0-.45-.152v1.289Zm4.362-1.72h.431l.866,3.857H47.1l-.162-.747h-.791l-.154.747h-.526l.877-3.857Zm.525,2.7-.316-1.964h-.01l-.322,1.964Zm3.514,1.152V65.608h.729a.924.924,0,0,1,.652.2.99.99,0,0,1,.255.638,1.659,1.659,0,0,1-.037.539,1.044,1.044,0,0,1-.2.42.47.47,0,0,1-.316.182l.74,1.877h-.553l-.734-1.888h-.011v1.888Zm.529-2.147c.364.016.547-.2.547-.653a.844.844,0,0,0-.105-.439.376.376,0,0,0-.356-.177h-.086v1.269Zm3.649-1.71h1.777v.441h-.6v3.416h-.545V66.049h-.627v-.441Zm4.465,3.857V65.608h.51l.942,2.926.021-.011c-.016-.2-.03-.395-.043-.567s-.029-.37-.046-.588-.027-.436-.035-.647-.011-.583-.011-1.113H60.9v3.857h-.5L59.46,66.49l-.011.007c.032.346.054.612.067.8s.022.395.033.621.014.464.014.728c0,.169,0,.313,0,.428s-.006.247-.009.39Zm4.927-3.857h1.44v.441h-.911v1.218h.82v.438h-.82v1.309h.911v.451h-1.44V65.608Zm4.258,3.857V65.608h.728a.928.928,0,0,1,.653.2.99.99,0,0,1,.257.638,1.745,1.745,0,0,1-.041.539,1.018,1.018,0,0,1-.2.42.464.464,0,0,1-.313.182l.737,1.877h-.553l-.733-1.888h-.009v1.888Zm.53-2.147c.364.016.545-.2.545-.653a.844.844,0,0,0-.1-.439.377.377,0,0,0-.356-.177h-.085v1.269Zm6.287-1.71h1.449v.441h-.919v1.218h.823v.438h-.823v1.76h-.53V65.608Zm4.118,2.19c0-.121-.005-.214-.011-.28a6.352,6.352,0,0,1,.075-.9,1.773,1.773,0,0,1,.25-.685.75.75,0,0,1,.521-.347.97.97,0,0,1,.658.075.96.96,0,0,1,.4.439,1.821,1.821,0,0,1,.165.636c.028.424.043.735.043.935a3.125,3.125,0,0,1-.239,1.352.839.839,0,0,1-.821.489.855.855,0,0,1-.758-.414,2.524,2.524,0,0,1-.286-1.3Zm.572-.113c-.008.893.151,1.347.483,1.359a.126.126,0,0,1,.041-.009.346.346,0,0,0,.271-.185,1.043,1.043,0,0,0,.125-.371,4.575,4.575,0,0,0,.037-.465c0-.172.007-.362.007-.568a4.77,4.77,0,0,0-.044-.753,1.376,1.376,0,0,0-.157-.5.309.309,0,0,0-.27-.169h-.021c-.193.012-.32.151-.381.415a5.011,5.011,0,0,0-.1,1.032c0,.054.008.124.008.209Zm4.483,1.78V65.608h.729a.93.93,0,0,1,.652.2.985.985,0,0,1,.257.638,1.745,1.745,0,0,1-.04.539,1.03,1.03,0,0,1-.195.42.473.473,0,0,1-.316.182l.737,1.877h-.551l-.733-1.888h-.01v1.888Zm.53-2.147c.364.016.545-.2.545-.653a.854.854,0,0,0-.1-.439.382.382,0,0,0-.357-.177h-.085v1.269Zm6.286-1.71h.531v3.406h.909v.451h-1.44V65.608Zm4.693,0v3.857h-.532V65.608Zm3.057,0h1.45v.441h-.921v1.218h.825v.438h-.825v1.76h-.529V65.608Zm4.226,0h1.439v.441h-.91v1.218h.82v.438h-.82v1.309h.91v.451h-1.439V65.608Z"/><polygon class="a" points="33.774 63.463 103.899 63.463 103.899 64.006 33.774 64.006 33.774 63.463 33.774 63.463"/></svg>