<svg xmlns="http://www.w3.org/2000/svg" viewBox="0 0 138 80"><defs><style>.a{fill:#0045a4;}.b{fill:#fff;}</style></defs><path class="a" d="M48.245,18.137h9.842c0,.718,0,2.064-.085,2.692H55.177v6.907H51.069V20.829H48.245Zm12.924-.089c1.455.089,2.91.089,4.365.089,1.2,3.23,2.653,6.37,4.022,9.6a31.285,31.285,0,0,0-4.108,0c-.77-1.884-1.455-3.768-2.14-5.562-.77,1.794-1.54,3.678-2.225,5.472-1.369,0-2.739,0-4.023.09Z"/><path class="a" d="M68.529,18.137h9.843v2.692h-2.91v6.817c-1.37,0-2.825.09-4.194.09V20.829H68.529Z"/><path class="a" d="M81.367,18.137c1.37,0,2.825,0,4.28-.089,1.369,3.229,2.653,6.459,4.108,9.688-1.369-.09-2.739-.09-4.108-.09-.685-1.794-1.455-3.588-2.14-5.382-.77,1.794-1.54,3.588-2.225,5.382-1.37,0-2.653.09-4.023.09C78.629,24.507,80.084,21.367,81.367,18.137Z"/><path class="a" d="M108.963,68.073H29.037V11.927h79.926Zm-79.618-.308h79.31V12.235H29.345Z"/><rect class="a" x="30.425" y="31.369" width="77.149" height="35.714"/><path class="b" d="M42.786,43.737c.164-.348.282-.571.377-.8q.888-2.182,1.768-4.368c.3-.751.3-.753,1.137-.755.7,0,1.406,0,2.109.007a1.292,1.292,0,0,1,.486.079c.219.1.256.259.048.422a.351.351,0,0,1-.151.068c-.881.152-.992.742-.961,1.513.077,1.9.088,3.806.131,5.709.017.779.173.956.892,1.2.176.059.311.243.464.369a1.585,1.585,0,0,1-.516.235c-.385.022-.775-.041-1.163-.038-.831.007-1.661.033-2.492.051a2.058,2.058,0,0,1-.222,0c-.265-.023-.625.067-.668-.3-.012-.1.349-.31.565-.362.413-.1.684-.285.677-.736q-.042-2.826-.1-5.654c0-.064-.042-.128-.175-.218-.228.531-.464,1.058-.682,1.593-.667,1.644-1.326,3.29-1.99,4.935a1.638,1.638,0,0,1-.173.345.4.4,0,0,1-.718,0,2.471,2.471,0,0,1-.217-.448q-1.241-3-2.476-5.994c-.061-.147-.14-.286-.21-.429l-.123,0a2.958,2.958,0,0,0-.081.434q-.108,2.575-.2,5.151a.731.731,0,0,0,.666.867,6.979,6.979,0,0,1,.749.2c.1.037.231.2.213.271-.03.117-.168.292-.264.294-1.012.026-2.025.029-3.038.016-.087,0-.213-.142-.243-.241-.02-.065.1-.175.159-.26a.161.161,0,0,1,.1-.048c.983-.134,1.048-.829,1.075-1.627.065-1.939.2-3.875.288-5.813.034-.721-.057-.813-.777-.94-.055-.009-.122,0-.162-.027-.152-.107-.295-.227-.442-.342.163-.091.324-.257.489-.261.906-.027,1.813-.005,2.719-.018.419-.005.571.268.711.585q1.03,2.332,2.07,4.662C42.521,43.251,42.629,43.435,42.786,43.737Z"/><path class="b" d="M79.63,51.686a2.593,2.593,0,0,1,.6-.32,12.479,12.479,0,0,1,7.835.321,4.221,4.221,0,0,1,1.257,7.047,6.487,6.487,0,0,1-5.157,1.984c-1.322-.078-2.653.006-3.98,0a1.791,1.791,0,0,1-.535-.184c.127-.156.23-.415.384-.449.724-.16.853-.643.847-1.282-.017-1.9,0-3.8-.006-5.708,0-.9,0-.9-.917-1.117a1.44,1.44,0,0,1-.287-.141Zm8.4,4.05a5.691,5.691,0,0,0-.614-2.52,3.076,3.076,0,0,0-2.654-1.734c-.883-.043-1.271.331-1.274,1.2q-.011,3.018,0,6.036a1.271,1.271,0,0,0,1.592,1.351,2.843,2.843,0,0,0,1.676-.9A5.07,5.07,0,0,0,88.031,55.736Z"/><path class="b" d="M69.92,52.863c-.036.3-.069.456-.07.61,0,1.645,0,3.29-.007,4.935-.006.879.146,1.494,1.252,1.6a.9.9,0,0,1,.365.124c.222.136.218.322-.017.409a1.983,1.983,0,0,1-.648.064c-.735.008-1.47,0-2.2.007-.11,0-.235.044-.328.006a2.182,2.182,0,0,1-.389-.254,2.125,2.125,0,0,1,.3-.338.9.9,0,0,1,.317-.09c.555-.143.709-.329.712-.946.009-1.682.006-3.364.006-5.045,0-.5-.007-1,0-1.5a.734.734,0,0,0-.656-.82.887.887,0,0,1-.318-.088c-.1-.062-.23-.181-.221-.262s.145-.2.249-.245a1.137,1.137,0,0,1,.434-.074c.833,0,1.665.016,2.5.009a.991.991,0,0,1,.841.435c1.345,1.694,2.706,3.374,4.055,5.064a2.343,2.343,0,0,1,.222.442l.211-.147a4.641,4.641,0,0,0,.049-.468c0-1.183.005-2.365,0-3.548-.005-.75-.161-.931-.88-1.117-.233-.061-.456-.159-.684-.24v-.223a3.239,3.239,0,0,1,.724-.185q1.19-.027,2.379.021c.162.006.317.158.475.243-.122.116-.224.291-.368.339-.9.3-.909.287-.911,1.22-.006,2.439.006,4.879-.012,7.318,0,.267-.067.677-.238.769-.365.2-.636-.135-.863-.415Q73.3,56.93,70.413,53.384C70.292,53.235,70.149,53.1,69.92,52.863Z"/><path class="b" d="M60.921,38.1a3.047,3.047,0,0,1-.576.241.793.793,0,0,0-.69.754,5.656,5.656,0,0,0-.038.663c0,1.7-.034,3.4.006,5.1a2.283,2.283,0,0,1-1.506,2.294,6.586,6.586,0,0,1-5.132.07,2.391,2.391,0,0,1-1.553-1.759,8.426,8.426,0,0,1-.211-1.7c-.03-1.459-.009-2.919-.013-4.378,0-.733-.09-.832-.8-1.047a6.282,6.282,0,0,1-.631-.264v-.178a2,2,0,0,1,.557-.178c1.4-.016,2.806-.018,4.209,0,.164,0,.327.163.49.25-.139.127-.257.306-.42.373-.817.334-.822.324-.821,1.2,0,1.607.007,3.213.005,4.82a2.35,2.35,0,0,0,1.4,2.377,2.874,2.874,0,0,0,3.03-.425,1.641,1.641,0,0,0,.646-1.354c.011-1.921.021-3.842.013-5.763,0-.54-.232-.732-.836-.846-.264-.049-.712.041-.65-.387.056-.383.476-.25.754-.25q1.107,0,2.212.039a2.608,2.608,0,0,1,.543.138Z"/><path class="b" d="M56.211,51.091a5.44,5.44,0,0,1,.776-.114c1.257-.01,2.513,0,3.769,0,.037,0,.08-.016.11,0,.191.081.379.167.568.252-.15.136-.278.331-.455.4-.752.285-.824.36-.824,1.162,0,1.608-.011,3.216.008,4.824a2.45,2.45,0,0,0,1.381,2.4,2.9,2.9,0,0,0,3.189-.559,1.933,1.933,0,0,0,.488-1.127c.051-1.958.026-3.918.028-5.877a.726.726,0,0,0-.69-.789,1.288,1.288,0,0,1-.38-.069,3.4,3.4,0,0,1-.441-.321c.162-.094.323-.266.486-.268.905-.011,1.811.02,2.717.037.037,0,.083-.007.109.012.082.062.211.127.22.2s-.1.171-.163.252c-.02.025-.066.029-.1.043-.967.373-1,.413-1.01,1.474-.01,1.534,0,3.068-.006,4.6a2.816,2.816,0,0,1-2.7,3.222,7.811,7.811,0,0,1-3.25-.1,2.9,2.9,0,0,1-2.4-2.814c-.077-1.716-.06-3.436-.076-5.154-.009-.9-.028-.932-.885-1.207a3.4,3.4,0,0,1-.5-.255Z"/><path class="b" d="M71.028,37.881a2.13,2.13,0,0,1,.56-.167c1.4-.015,2.807-.018,4.21,0,.162,0,.322.167.483.256-.139.127-.256.309-.419.373-.82.323-.827.312-.828,1.2q0,2.41,0,4.821c.008,2.433,2.25,3.055,3.83,2.333a1.93,1.93,0,0,0,1.264-1.9c-.006-.369,0-.739,0-1.108,0-1.441.006-2.882,0-4.323,0-.694-.181-.887-.843-1.007-.256-.046-.664.014-.633-.36.035-.416.452-.278.725-.279.756,0,1.513,0,2.268.036a1.423,1.423,0,0,1,.465.21c-.121.115-.222.286-.365.337-.778.276-.852.342-.857,1.18-.01,1.681-.032,3.363.006,5.043.031,1.376-.387,2.3-2.16,2.87a6.944,6.944,0,0,1-4.1-.017A2.83,2.83,0,0,1,72.524,44.8a9.061,9.061,0,0,1-.051-1.106c-.006-1.349,0-2.7,0-4.046,0-1.034-.009-1.03-.983-1.358a3.175,3.175,0,0,1-.459-.238Z"/><path class="b" d="M47.415,51.157a2.528,2.528,0,0,1,.568-.216,6.531,6.531,0,0,1,.885-.005l5.487.084c.074,0,.148,0,.222,0,.839.013.854.026.852.885,0,.387-.012.775-.029,1.162,0,.065-.056.128-.148.321a4.878,4.878,0,0,1-.582-.57,2.688,2.688,0,0,0-2.965-1.053.592.592,0,0,0-.365.4c-.034.885-.046,1.774,0,2.657.01.179.285.43.487.5a1.734,1.734,0,0,0,2-.8c.13-.21.29-.4.435-.6l.193.026a4.1,4.1,0,0,1,.107.623c.014.717.02,1.434,0,2.151a2.057,2.057,0,0,1-.186.565c-.167-.115-.426-.2-.485-.352a1.689,1.689,0,0,0-1.971-1.058c-.4.028-.616.2-.612.613.006.776,0,1.551.008,2.327a1.081,1.081,0,0,0,.821,1.113c.174.057.3.257.45.392a2.127,2.127,0,0,1-.533.3,1.863,1.863,0,0,1-.661-.012,10.345,10.345,0,0,0-3.093.01.619.619,0,0,1-.274.019c-.227-.081-.444-.188-.665-.285a2.063,2.063,0,0,1,.531-.392,1.112,1.112,0,0,0,.84-1.162c.009-2.087.005-4.174,0-6.261a.864.864,0,0,0-.677-.9,6.529,6.529,0,0,1-.635-.269Z"/><path class="b" d="M86,47.216a3.757,3.757,0,0,1-.66.13c-.85.015-1.7.006-2.552,0a.576.576,0,0,1-.272-.028,1.9,1.9,0,0,1-.3-.263c.091-.079.186-.229.273-.225.79.038,1-.516,1.237-1.107,1-2.467,2.02-4.923,3.034-7.383a3.184,3.184,0,0,1,.137-.3c.153-.284.342-.609.7-.517a1.085,1.085,0,0,1,.64.512c.478,1,.9,2.024,1.338,3.044.712,1.665,1.424,3.33,2.121,5a1.026,1.026,0,0,0,.89.722.1.1,0,0,1,.054.01c.148.111.3.225.441.338a1.755,1.755,0,0,1-.526.283,5.125,5.125,0,0,1-.829-.02c-.886-.011-1.772-.013-2.658-.026a6.786,6.786,0,0,1-.879-.063.3.3,0,0,1-.2-.222c0-.079.109-.168.184-.238.036-.034.1-.036.156-.052.821-.246.825-.254.482-1.056-.094-.221-.2-.439-.287-.661-.391-.959-.39-.96-1.4-.961-.444,0-.888.007-1.332.005a.812.812,0,0,0-.9.653c-.078.3-.2.595-.286.9-.149.544,0,.775.547.943.3.091.586.212.878.32Zm.685-6.8-.182-.005c-.347.92-.7,1.838-1.023,2.768-.022.064.2.3.322.312.514.036,1.033.026,1.549.011.36-.01.5-.208.375-.556-.113-.312-.229-.623-.357-.93C87.146,41.477,86.913,40.945,86.685,40.412Z"/><path class="b" d="M67.265,42.361c0,1.071.012,2.143,0,3.214a1.074,1.074,0,0,0,.809,1.216c.171.05.293.267.437.407a1.631,1.631,0,0,1-.559.246q-2.019.028-4.039-.005c-.171,0-.34-.15-.51-.23.118-.141.212-.367.359-.41a1.29,1.29,0,0,0,.956-1.478c-.02-2.087,0-4.174-.009-6.262,0-.673-.177-.818-.837-.743a1.906,1.906,0,0,0-1.343.794,4.841,4.841,0,0,1-.623.7.506.506,0,0,1-.443.094c-.089-.04-.155-.285-.124-.413.162-.663.337-1.325.55-1.973.129-.391.41-.435.64-.1a.908.908,0,0,0,.852.4q2.746-.011,5.492,0a1.25,1.25,0,0,0,1.087-.433c.066-.083.259-.167.319-.13a.46.46,0,0,1,.209.339c-.046.681-.117,1.361-.2,2.039-.013.107-.133.28-.209.283a.511.511,0,0,1-.354-.182,3.279,3.279,0,0,1-.347-.565,1.547,1.547,0,0,0-1.4-.845c-.548-.024-.7.109-.706.662C67.258,40.107,67.264,41.234,67.265,42.361Z"/><path class="b" d="M101.738,45.005a2.514,2.514,0,0,1,.052.562c-.049.4-.158.8-.2,1.2a.623.623,0,0,1-.684.634c-.277,0-.554.007-.832.007-1.773,0-3.547.007-5.321,0-.407,0-.814-.067-1.221-.1l-.055-.229a2.257,2.257,0,0,1,.545-.332,1.152,1.152,0,0,0,.9-1.279c-.008-1.957,0-3.915-.008-5.872,0-.756-.13-.913-.848-1.166a.688.688,0,0,1-.207-.076c-.119-.1-.222-.213-.332-.322.14-.1.271-.257.422-.28a6.538,6.538,0,0,1,.94-.017h2.657a1.643,1.643,0,0,1,.5.005,5.138,5.138,0,0,1,.682.337,2.583,2.583,0,0,1-.594.382c-.577.178-.764.359-.767.98-.009,2.013-.014,4.026,0,6.039a1.212,1.212,0,0,0,1.384,1.3,2.435,2.435,0,0,0,1.78-.776c.335-.359.676-.711,1.015-1.066Z"/></svg>